<svg version="1.1" id="Layer_1" xmlns="http://www.w3.org/2000/svg" xmlns:xlink="http://www.w3.org/1999/xlink" x="0px" y="0px"
	 width="100%" viewBox="0 0 439 78" enable-background="new 0 0 439 78" xml:space="preserve">
<path fill="#131316" opacity="1.000000" stroke="none" 
	d="
M324.000000,79.000000 
	C216.000015,79.000000 108.500023,79.000000 1.000029,79.000000 
	C1.000019,53.000015 1.000019,27.000032 1.000010,1.000036 
	C147.333298,1.000024 293.666595,1.000024 439.999939,1.000012 
	C439.999939,26.999964 439.999939,52.999928 439.999969,78.999947 
	C401.500000,79.000000 363.000000,79.000000 324.000000,79.000000 
M7.942309,36.898018 
	C8.260269,38.319344 8.578229,39.740673 9.199711,41.762890 
	C11.693604,44.225555 14.187497,46.688221 16.965427,49.772984 
	C18.776165,51.704971 20.402370,53.880409 22.482445,55.457062 
	C23.399500,56.152172 25.728264,56.188480 26.514471,55.497692 
	C27.231504,54.867699 27.346355,52.249275 26.661116,51.547215 
	C23.323946,48.128101 19.629198,45.057995 15.782817,41.313946 
	C15.341396,40.887260 14.899976,40.460571 14.588243,39.343418 
	C14.543092,38.878441 14.497941,38.413460 15.019252,37.519234 
	C19.083319,33.459160 23.147385,29.399086 27.716063,24.849651 
	C27.866535,22.071878 27.049791,20.501198 23.336248,21.919609 
	C22.880165,22.256371 22.424080,22.593130 21.367868,23.203030 
	C20.761965,24.078968 20.156061,24.954906 19.437222,26.053726 
	C19.437222,26.053726 19.592367,26.249584 19.316668,26.256996 
	C19.316668,26.256996 19.064859,26.369501 18.365723,26.634943 
	C15.095829,29.949631 11.825936,33.264320 8.551963,36.632580 
	C8.551963,36.632580 8.556748,36.686218 7.942309,36.898018 
M432.254547,51.398411 
	C431.707153,50.379181 431.218842,48.530617 430.601959,48.486660 
	C428.147095,48.311733 422.575317,56.300167 422.712524,59.630356 
	C422.153992,61.169941 421.595459,62.709522 421.036926,64.249107 
	C421.503418,64.582901 421.969910,64.916695 422.436401,65.250488 
	C425.898529,62.198288 429.480743,59.264011 432.706512,55.979645 
	C433.254303,55.421879 432.271637,53.360962 432.254547,51.398411 
M151.698944,32.813541 
	C146.425293,28.195074 141.147110,27.682970 137.061829,31.393391 
	C132.424576,35.605129 131.805038,45.439400 135.840424,50.781639 
	C139.642136,55.814537 143.302475,55.924313 151.468918,51.250328 
	C152.735764,59.202499 151.546631,60.441978 141.430374,61.750713 
	C142.268280,63.207081 143.396454,64.938271 144.745544,65.132126 
	C151.717667,66.134018 156.905426,62.185551 157.334686,54.948696 
	C157.823700,46.704948 157.447769,38.409889 157.447769,30.137135 
	C157.094086,29.708603 156.740402,29.280069 156.386703,28.851538 
	C154.969147,29.972145 153.551590,31.092754 151.698944,32.813541 
M192.349380,36.505554 
	C192.349380,42.595478 192.349380,48.685398 192.349380,54.864052 
	C194.393356,54.864052 195.839706,54.864052 197.852493,54.864052 
	C197.852493,49.960648 197.852493,45.235012 197.852493,40.532776 
	C203.302139,40.532776 208.176682,40.532776 213.418396,40.532776 
	C213.418396,45.504719 213.418396,50.115860 213.418396,55.091724 
	C215.375061,54.969604 216.926071,54.872803 218.471863,54.776325 
	C218.471863,43.443020 218.471863,32.539219 218.471863,21.416456 
	C216.755081,21.416456 215.335953,21.416456 213.295563,21.416456 
	C213.295563,26.326120 213.295563,31.036539 213.295563,35.695488 
	C207.767548,35.695488 202.866287,35.695488 197.581833,35.695488 
	C197.581833,30.784266 197.581833,26.190128 197.581833,21.128130 
	C195.626297,21.289770 194.103271,21.415659 192.340332,21.561378 
	C192.340332,26.569321 192.340332,31.038990 192.349380,36.505554 
M335.309570,32.366947 
	C334.507874,31.482540 333.532654,29.760508 332.939636,29.883362 
	C331.592712,30.162405 330.433777,31.348688 328.979797,32.310852 
	C324.367432,28.277088 319.075226,27.738995 315.044952,31.407173 
	C310.372131,35.660168 309.485229,45.979755 313.677887,51.226318 
	C315.027527,52.915195 317.360474,54.892918 319.221069,54.870449 
	C322.859955,54.826511 326.483032,53.467915 330.292694,52.613148 
	C330.292694,56.074284 330.292694,60.361149 330.292694,64.788284 
	C332.082916,64.788284 333.536072,64.788284 335.322571,64.788284 
	C335.322571,54.145374 335.322571,43.676235 335.309570,32.366947 
M116.614601,55.026398 
	C118.280144,54.029751 119.945686,53.033108 120.530602,52.683102 
	C123.045120,53.753517 125.001053,54.586143 127.379677,55.598709 
	C127.379677,46.205982 127.379677,38.147346 127.379677,28.886459 
	C124.868492,30.049757 123.063202,30.886051 120.807716,31.930899 
	C117.029732,28.748075 113.041809,27.920998 109.148331,30.078461 
	C104.108101,32.871368 101.886375,40.166828 103.890549,47.343319 
	C105.496132,53.092533 109.036453,55.402481 116.614601,55.026398 
M85.831062,40.875526 
	C85.641945,36.421345 85.001198,32.093498 80.408272,29.930689 
	C75.837990,27.778532 71.794548,29.094170 67.781433,33.438812 
	C67.781433,28.048065 67.781433,23.660727 67.781433,18.980492 
	C65.878441,19.134142 64.475204,19.247442 63.123283,19.356598 
	C63.123283,31.447575 63.123283,43.175835 63.123283,55.142109 
	C64.886757,54.975197 66.295769,54.841831 67.945786,54.685658 
	C67.945786,49.886608 67.956978,45.414692 67.942566,40.942856 
	C67.928879,36.699776 69.596977,33.741096 74.182861,33.578636 
	C78.932709,33.410362 80.524422,36.548977 80.625504,40.682751 
	C80.739128,45.329327 80.651634,49.980820 80.651634,55.071339 
	C82.551880,54.931030 84.081726,54.818073 85.818993,54.689796 
	C85.818993,50.086834 85.818993,45.940418 85.831062,40.875526 
M246.476288,43.692234 
	C248.410629,37.041866 245.288727,30.978382 239.085297,29.337132 
	C232.372925,27.561228 226.455963,31.055063 224.535080,37.928684 
	C222.485840,45.261677 225.911758,52.978100 232.058640,54.874500 
	C238.912903,56.989140 244.843414,53.859787 246.755585,46.153130 
	C244.349030,47.259384 242.638031,48.227596 240.808197,48.841724 
	C238.445099,49.634830 235.662704,51.149723 233.658218,50.502827 
	C231.523788,49.813992 230.086838,46.963844 228.345367,45.057346 
	C228.662918,44.628036 228.980469,44.198730 229.298019,43.769421 
	C234.747650,43.769421 240.197296,43.769421 246.476288,43.692234 
M369.811829,39.267151 
	C370.257782,42.656212 370.064758,46.301479 371.297180,49.375202 
	C373.219360,54.169247 378.194305,56.090469 383.865936,55.107151 
	C388.286743,54.340698 391.117340,51.860359 392.560364,45.776966 
	C389.660889,47.290813 388.051758,48.452843 386.255676,48.991295 
	C383.728119,49.749046 380.812592,50.914440 378.533997,50.261604 
	C376.716187,49.740803 375.602417,46.762856 374.176147,44.875610 
	C374.529816,44.491817 374.883514,44.108025 375.237183,43.724232 
	C381.006744,43.724232 386.776306,43.724232 392.492096,43.724232 
	C393.324432,35.781273 390.089386,30.379732 384.047089,29.147125 
	C377.281769,27.767025 372.248901,31.100834 369.811829,39.267151 
M403.066254,25.783903 
	C401.432373,35.700512 399.803131,45.617889 398.162811,55.533436 
	C397.278992,60.876019 399.350525,62.686447 404.961609,61.182606 
	C407.432617,47.386230 409.921509,33.489876 412.441254,19.421391 
	C409.489655,18.832735 407.452942,18.426535 405.125244,17.962305 
	C404.431152,20.550241 403.840332,22.753036 403.066254,25.783903 
M342.480621,48.529381 
	C345.592712,56.381264 351.664307,57.762466 357.557098,52.954334 
	C360.053497,53.921978 361.979095,54.668362 364.375000,55.597046 
	C364.375000,46.368439 364.375000,38.269817 364.375000,30.018257 
	C362.580536,30.018257 361.033722,30.018257 359.178894,30.018257 
	C359.178894,35.015041 359.213959,39.662376 359.168030,44.308907 
	C359.129974,48.156696 357.445221,50.859516 353.345215,50.964146 
	C348.925079,51.076935 347.213959,48.147007 347.082062,44.180054 
	C346.938141,39.852085 347.035858,35.516380 346.985779,31.184546 
	C346.980713,30.744577 346.684265,30.307976 346.420502,29.591269 
	C344.967987,29.683880 343.559113,29.773708 342.246033,29.857428 
	C342.246033,36.077820 342.246033,41.894611 342.480621,48.529381 
M177.835678,29.216473 
	C176.341263,29.161556 174.827240,28.924601 173.355804,29.083046 
	C166.779022,29.791248 162.638443,35.516743 163.028107,43.211441 
	C163.391495,50.387791 167.844833,55.114441 174.405090,55.286659 
	C180.849197,55.455833 185.044693,52.179688 186.574783,45.783733 
	C188.296768,38.585548 185.311234,32.507408 177.835678,29.216473 
M256.131226,29.686501 
	C255.087143,30.333168 253.153564,30.955318 253.134964,31.630247 
	C252.921478,39.376396 252.998978,47.130562 252.998978,55.072052 
	C255.016602,54.975216 256.425385,54.907600 258.036163,54.830288 
	C258.036163,49.991123 257.919708,45.524384 258.066895,41.066353 
	C258.235077,35.972122 260.598175,33.439167 264.737701,33.548279 
	C268.722351,33.653313 270.821747,36.185375 270.929260,41.282791 
	C271.023071,45.731705 270.948822,50.184166 270.948822,55.010334 
	C272.881439,54.917397 274.384552,54.845116 275.967773,54.768978 
	C275.967773,49.766758 275.962830,45.289806 275.969116,40.812870 
	C275.975433,36.290459 275.197571,32.066639 270.607391,29.908901 
	C265.900391,27.696243 261.921448,29.299179 258.669220,32.795448 
	C258.048157,31.709826 257.480957,30.718330 256.131226,29.686501 
M42.908665,28.771742 
	C42.908665,37.507401 42.908665,46.243061 42.908665,55.161491 
	C44.975483,54.979328 46.389038,54.854744 48.146759,54.699825 
	C48.146759,44.985497 48.146759,35.592602 48.146759,25.793785 
	C51.435181,25.793785 54.347118,25.793785 57.221210,25.793785 
	C57.487125,21.355900 57.488098,21.271864 54.159336,21.233297 
	C48.347195,21.165962 42.529873,21.341234 36.722214,21.166264 
	C33.075504,21.056396 32.524342,22.606779 33.623581,25.940155 
	C35.524742,25.940155 37.372280,25.702744 39.120316,26.017649 
	C40.443417,26.256002 41.639542,27.199175 42.908665,28.771742 
M421.999969,35.584576 
	C426.085388,38.893005 425.954773,41.875328 421.663513,45.058201 
	C419.291382,46.817612 417.184692,49.055134 415.375153,51.398914 
	C414.548096,52.470200 414.727631,54.318619 414.450653,55.814587 
	C416.131287,55.653481 418.388672,56.128574 419.391388,55.219620 
	C423.435364,51.553730 426.941956,47.298882 430.945007,43.582535 
	C433.590912,41.126114 433.244385,39.220371 430.976257,36.953255 
	C427.221741,33.200397 423.377686,29.520050 419.857422,25.555172 
	C416.924561,22.251894 415.033905,23.050985 413.170990,26.543171 
	C415.992767,29.412220 418.760193,32.225998 421.999969,35.584576 
M286.994720,46.538929 
	C286.993866,35.513882 286.993866,35.513882 296.033722,33.811302 
	C295.615082,32.487186 295.059113,30.086367 294.834625,30.116976 
	C292.237366,30.471128 289.690216,31.193068 288.146027,31.569590 
	C286.032257,30.729877 284.310760,30.045994 282.263550,29.232731 
	C282.263550,38.461056 282.263550,46.668694 282.263550,55.087803 
	C283.988556,54.963329 285.389801,54.862221 286.994904,54.746403 
	C286.994904,52.094257 286.994904,49.794136 286.994720,46.538929 
M97.751633,31.307074 
	C96.136627,30.633547 94.521614,29.960018 92.530975,29.129835 
	C92.530975,38.482777 92.530975,46.556477 92.530975,54.752773 
	C94.286682,54.752773 95.825325,54.752773 97.745888,54.752773 
	C97.745888,47.009338 97.745888,39.584496 97.751633,31.307074 
M300.013947,50.341141 
	C300.013947,51.795742 300.013947,53.250340 300.013947,54.772343 
	C301.869263,54.772343 303.266541,54.772343 304.699097,54.772343 
	C304.699097,46.299770 304.699097,38.071678 304.699097,29.628782 
	C302.966949,29.787510 301.575134,29.915051 300.019379,30.057615 
	C300.019379,36.750004 300.019379,43.061321 300.013947,50.341141 
M305.433197,22.411758 
	C304.349823,21.299692 303.366821,20.030334 302.092590,19.217356 
	C301.857086,19.067097 300.036774,20.628904 299.708557,21.645967 
	C299.456909,22.425634 300.499207,24.470919 300.800171,24.437977 
	C302.315857,24.272064 303.777161,23.608900 305.433197,22.411758 
M98.018616,21.652086 
	C97.087540,19.162497 95.306038,17.929523 93.183205,19.841278 
	C92.390968,20.554745 92.398430,23.675800 93.180939,24.324677 
	C95.273315,26.059736 97.161491,25.040604 98.018616,21.652086 
z"/>
<path fill="#ECECED" opacity="1.000000" stroke="none" 
	d="
M151.916489,32.513451 
	C153.551590,31.092754 154.969147,29.972145 156.386703,28.851538 
	C156.740402,29.280069 157.094086,29.708603 157.447769,30.137135 
	C157.447769,38.409889 157.823700,46.704948 157.334686,54.948696 
	C156.905426,62.185551 151.717667,66.134018 144.745544,65.132126 
	C143.396454,64.938271 142.268280,63.207081 141.430374,61.750713 
	C151.546631,60.441978 152.735764,59.202499 151.468918,51.250328 
	C143.302475,55.924313 139.642136,55.814537 135.840424,50.781639 
	C131.805038,45.439400 132.424576,35.605129 137.061829,31.393391 
	C141.147110,27.682970 146.425293,28.195074 151.916489,32.513451 
M148.762543,49.454044 
	C152.510742,46.392708 152.829819,42.338634 151.633759,38.137642 
	C150.430603,33.911674 146.271637,32.131935 142.599365,33.911423 
	C139.121170,35.596867 137.508163,41.272167 139.214920,45.819466 
	C140.942322,50.421741 143.122711,51.411797 148.762543,49.454044 
z"/>
<path fill="#E1E1E2" opacity="1.000000" stroke="none" 
	d="
M192.344849,36.007107 
	C192.340332,31.038990 192.340332,26.569321 192.340332,21.561378 
	C194.103271,21.415659 195.626297,21.289770 197.581833,21.128130 
	C197.581833,26.190128 197.581833,30.784266 197.581833,35.695488 
	C202.866287,35.695488 207.767548,35.695488 213.295563,35.695488 
	C213.295563,31.036539 213.295563,26.326120 213.295563,21.416456 
	C215.335953,21.416456 216.755081,21.416456 218.471863,21.416456 
	C218.471863,32.539219 218.471863,43.443020 218.471863,54.776325 
	C216.926071,54.872803 215.375061,54.969604 213.418396,55.091724 
	C213.418396,50.115860 213.418396,45.504719 213.418396,40.532776 
	C208.176682,40.532776 203.302139,40.532776 197.852493,40.532776 
	C197.852493,45.235012 197.852493,49.960648 197.852493,54.864052 
	C195.839706,54.864052 194.393356,54.864052 192.349380,54.864052 
	C192.349380,48.685398 192.349380,42.595478 192.344849,36.007107 
z"/>
<path fill="#F1F1F2" opacity="1.000000" stroke="none" 
	d="
M335.316071,32.787018 
	C335.322571,43.676235 335.322571,54.145374 335.322571,64.788284 
	C333.536072,64.788284 332.082916,64.788284 330.292694,64.788284 
	C330.292694,60.361149 330.292694,56.074284 330.292694,52.613148 
	C326.483032,53.467915 322.859955,54.826511 319.221069,54.870449 
	C317.360474,54.892918 315.027527,52.915195 313.677887,51.226318 
	C309.485229,45.979755 310.372131,35.660168 315.044952,31.407173 
	C319.075226,27.738995 324.367432,28.277088 328.979797,32.310852 
	C330.433777,31.348688 331.592712,30.162405 332.939636,29.883362 
	C333.532654,29.760508 334.507874,31.482540 335.316071,32.787018 
M329.889221,44.909813 
	C329.805328,42.769951 330.079102,40.539051 329.562500,38.509319 
	C328.512421,34.383514 324.911407,32.442318 321.197205,33.735535 
	C316.683411,35.307133 316.226196,39.220974 316.393494,43.100029 
	C316.548981,46.705967 317.662689,50.160290 321.894592,50.948269 
	C326.045258,51.721119 328.443909,49.473839 329.889221,44.909813 
z"/>
<path fill="#E9E9EA" opacity="1.000000" stroke="none" 
	d="
M116.240509,55.091782 
	C109.036453,55.402481 105.496132,53.092533 103.890549,47.343319 
	C101.886375,40.166828 104.108101,32.871368 109.148331,30.078461 
	C113.041809,27.920998 117.029732,28.748075 120.807716,31.930899 
	C123.063202,30.886051 124.868492,30.049757 127.379677,28.886459 
	C127.379677,38.147346 127.379677,46.205982 127.379677,55.598709 
	C125.001053,54.586143 123.045120,53.753517 120.530602,52.683102 
	C119.945686,53.033108 118.280144,54.029751 116.240509,55.091782 
M122.034065,39.955555 
	C121.388214,35.807781 119.207291,33.023052 114.787384,33.445000 
	C110.240250,33.879097 109.100334,37.603291 108.646851,41.423065 
	C108.475082,42.869961 108.688934,44.442890 109.081512,45.860184 
	C109.958336,49.025749 112.073143,51.735703 115.402878,50.831852 
	C117.837570,50.170959 120.042778,47.771858 121.737823,45.656731 
	C122.581207,44.604324 122.048584,42.449192 122.034065,39.955555 
z"/>
<path fill="#F1F1F2" opacity="1.000000" stroke="none" 
	d="
M85.825027,41.334763 
	C85.818993,45.940418 85.818993,50.086834 85.818993,54.689796 
	C84.081726,54.818073 82.551880,54.931030 80.651634,55.071339 
	C80.651634,49.980820 80.739128,45.329327 80.625504,40.682751 
	C80.524422,36.548977 78.932709,33.410362 74.182861,33.578636 
	C69.596977,33.741096 67.928879,36.699776 67.942566,40.942856 
	C67.956978,45.414692 67.945786,49.886608 67.945786,54.685658 
	C66.295769,54.841831 64.886757,54.975197 63.123283,55.142109 
	C63.123283,43.175835 63.123283,31.447575 63.123283,19.356598 
	C64.475204,19.247442 65.878441,19.134142 67.781433,18.980492 
	C67.781433,23.660727 67.781433,28.048065 67.781433,33.438812 
	C71.794548,29.094170 75.837990,27.778532 80.408272,29.930689 
	C85.001198,32.093498 85.641945,36.421345 85.825027,41.334763 
z"/>
<path fill="#EBEBEC" opacity="1.000000" stroke="none" 
	d="
M246.061615,43.730827 
	C240.197296,43.769421 234.747650,43.769421 229.298019,43.769421 
	C228.980469,44.198730 228.662918,44.628036 228.345367,45.057346 
	C230.086838,46.963844 231.523788,49.813992 233.658218,50.502827 
	C235.662704,51.149723 238.445099,49.634830 240.808197,48.841724 
	C242.638031,48.227596 244.349030,47.259384 246.755585,46.153130 
	C244.843414,53.859787 238.912903,56.989140 232.058640,54.874500 
	C225.911758,52.978100 222.485840,45.261677 224.535080,37.928684 
	C226.455963,31.055063 232.372925,27.561228 239.085297,29.337132 
	C245.288727,30.978382 248.410629,37.041866 246.061615,43.730827 
M229.384949,38.149384 
	C229.855438,38.787205 230.303635,39.957249 230.799957,39.978020 
	C234.522308,40.133808 238.254150,40.062843 241.983032,40.062843 
	C242.301010,39.539345 242.618988,39.015846 242.936966,38.492348 
	C241.169510,36.693478 239.703873,34.055824 237.565918,33.286495 
	C234.102463,32.040188 231.100540,33.678703 229.384949,38.149384 
z"/>
<path fill="#EAEBEB" opacity="1.000000" stroke="none" 
	d="
M369.876007,38.879425 
	C372.248901,31.100834 377.281769,27.767025 384.047089,29.147125 
	C390.089386,30.379732 393.324432,35.781273 392.492096,43.724232 
	C386.776306,43.724232 381.006744,43.724232 375.237183,43.724232 
	C374.883514,44.108025 374.529816,44.491817 374.176147,44.875610 
	C375.602417,46.762856 376.716187,49.740803 378.533997,50.261604 
	C380.812592,50.914440 383.728119,49.749046 386.255676,48.991295 
	C388.051758,48.452843 389.660889,47.290813 392.560364,45.776966 
	C391.117340,51.860359 388.286743,54.340698 383.865936,55.107151 
	C378.194305,56.090469 373.219360,54.169247 371.297180,49.375202 
	C370.064758,46.301479 370.257782,42.656212 369.876007,38.879425 
M383.061096,33.099510 
	C377.111847,33.106014 375.428772,34.554096 375.304138,39.843483 
	C379.398438,39.843483 383.488892,39.843483 389.333984,39.843483 
	C386.944550,37.002552 385.387146,35.150883 383.061096,33.099510 
z"/>
<path fill="#3A70AC" opacity="1.000000" stroke="none" 
	d="
M403.157898,25.369867 
	C403.840332,22.753036 404.431152,20.550241 405.125244,17.962305 
	C407.452942,18.426535 409.489655,18.832735 412.441254,19.421391 
	C409.921509,33.489876 407.432617,47.386230 404.961609,61.182606 
	C399.350525,62.686447 397.278992,60.876019 398.162811,55.533436 
	C399.803131,45.617889 401.432373,35.700512 403.157898,25.369867 
z"/>
<path fill="#EAEAEB" opacity="1.000000" stroke="none" 
	d="
M342.363342,48.120392 
	C342.246033,41.894611 342.246033,36.077820 342.246033,29.857428 
	C343.559113,29.773708 344.967987,29.683880 346.420502,29.591269 
	C346.684265,30.307976 346.980713,30.744577 346.985779,31.184546 
	C347.035858,35.516380 346.938141,39.852085 347.082062,44.180054 
	C347.213959,48.147007 348.925079,51.076935 353.345215,50.964146 
	C357.445221,50.859516 359.129974,48.156696 359.168030,44.308907 
	C359.213959,39.662376 359.178894,35.015041 359.178894,30.018257 
	C361.033722,30.018257 362.580536,30.018257 364.375000,30.018257 
	C364.375000,38.269817 364.375000,46.368439 364.375000,55.597046 
	C361.979095,54.668362 360.053497,53.921978 357.557098,52.954334 
	C351.664307,57.762466 345.592712,56.381264 342.363342,48.120392 
z"/>
<path fill="#F0F0F1" opacity="1.000000" stroke="none" 
	d="
M178.208679,29.363697 
	C185.311234,32.507408 188.296768,38.585548 186.574783,45.783733 
	C185.044693,52.179688 180.849197,55.455833 174.405090,55.286659 
	C167.844833,55.114441 163.391495,50.387791 163.028107,43.211441 
	C162.638443,35.516743 166.779022,29.791248 173.355804,29.083046 
	C174.827240,28.924601 176.341263,29.161556 178.208679,29.363697 
M168.308243,39.227062 
	C168.322617,41.203606 168.009628,43.250721 168.417465,45.142437 
	C169.353439,49.484035 172.597198,51.820000 176.276642,50.938610 
	C180.632919,49.895096 181.777664,46.301163 181.883499,42.536934 
	C181.994827,38.576256 181.020615,34.696659 176.468277,33.518597 
	C172.322067,32.445629 169.886978,34.681580 168.308243,39.227062 
z"/>
<path fill="#F5F5F6" opacity="1.000000" stroke="none" 
	d="
M256.522491,29.706669 
	C257.480957,30.718330 258.048157,31.709826 258.669220,32.795448 
	C261.921448,29.299179 265.900391,27.696243 270.607391,29.908901 
	C275.197571,32.066639 275.975433,36.290459 275.969116,40.812870 
	C275.962830,45.289806 275.967773,49.766758 275.967773,54.768978 
	C274.384552,54.845116 272.881439,54.917397 270.948822,55.010334 
	C270.948822,50.184166 271.023071,45.731705 270.929260,41.282791 
	C270.821747,36.185375 268.722351,33.653313 264.737701,33.548279 
	C260.598175,33.439167 258.235077,35.972122 258.066895,41.066353 
	C257.919708,45.524384 258.036163,49.991123 258.036163,54.830288 
	C256.425385,54.907600 255.016602,54.975216 252.998978,55.072052 
	C252.998978,47.130562 252.921478,39.376396 253.134964,31.630247 
	C253.153564,30.955318 255.087143,30.333168 256.522491,29.706669 
z"/>
<path fill="#EFEFF0" opacity="1.000000" stroke="none" 
	d="
M42.900421,28.300213 
	C41.639542,27.199175 40.443417,26.256002 39.120316,26.017649 
	C37.372280,25.702744 35.524742,25.940155 33.623581,25.940155 
	C32.524342,22.606779 33.075504,21.056396 36.722214,21.166264 
	C42.529873,21.341234 48.347195,21.165962 54.159336,21.233297 
	C57.488098,21.271864 57.487125,21.355900 57.221210,25.793785 
	C54.347118,25.793785 51.435181,25.793785 48.146759,25.793785 
	C48.146759,35.592602 48.146759,44.985497 48.146759,54.699825 
	C46.389038,54.854744 44.975483,54.979328 42.908665,55.161491 
	C42.908665,46.243061 42.908665,37.507401 42.900421,28.300213 
z"/>
<path fill="#37679D" opacity="1.000000" stroke="none" 
	d="
M421.763794,35.312176 
	C418.760193,32.225998 415.992767,29.412220 413.170990,26.543171 
	C415.033905,23.050985 416.924561,22.251894 419.857422,25.555172 
	C423.377686,29.520050 427.221741,33.200397 430.976257,36.953255 
	C433.244385,39.220371 433.590912,41.126114 430.945007,43.582535 
	C426.941956,47.298882 423.435364,51.553730 419.391388,55.219620 
	C418.388672,56.128574 416.131287,55.653481 414.450653,55.814583 
	C414.727631,54.318619 414.548096,52.470200 415.375153,51.398914 
	C417.184692,49.055134 419.291382,46.817612 421.663513,45.058201 
	C425.954773,41.875328 426.085388,38.893005 421.763794,35.312176 
z"/>
<path fill="#F6F6F7" opacity="1.000000" stroke="none" 
	d="
M286.994812,47.016472 
	C286.994904,49.794136 286.994904,52.094257 286.994904,54.746403 
	C285.389801,54.862221 283.988556,54.963329 282.263550,55.087803 
	C282.263550,46.668694 282.263550,38.461056 282.263550,29.232731 
	C284.310760,30.045994 286.032257,30.729877 288.146027,31.569590 
	C289.690216,31.193068 292.237366,30.471128 294.834625,30.116976 
	C295.059113,30.086367 295.615082,32.487186 296.033722,33.811302 
	C286.993866,35.513882 286.993866,35.513882 286.994812,47.016472 
z"/>
<path fill="#D9D9DA" opacity="1.000000" stroke="none" 
	d="
M97.748764,31.733364 
	C97.745888,39.584496 97.745888,47.009338 97.745888,54.752773 
	C95.825325,54.752773 94.286682,54.752773 92.530975,54.752773 
	C92.530975,46.556477 92.530975,38.482777 92.530975,29.129835 
	C94.521614,29.960018 96.136627,30.633547 97.748764,31.733364 
z"/>
<path fill="#FCFCFD" opacity="1.000000" stroke="none" 
	d="
M300.016663,49.856888 
	C300.019379,43.061321 300.019379,36.750004 300.019379,30.057615 
	C301.575134,29.915051 302.966949,29.787510 304.699097,29.628782 
	C304.699097,38.071678 304.699097,46.299770 304.699097,54.772343 
	C303.266541,54.772343 301.869263,54.772343 300.013947,54.772343 
	C300.013947,53.250340 300.013947,51.795742 300.016663,49.856888 
z"/>
<path fill="#3C6DA6" opacity="1.000000" stroke="none" 
	d="
M21.967995,22.929892 
	C22.424080,22.593130 22.880165,22.256371 23.822208,22.154385 
	C25.275928,23.372446 26.243690,24.355730 27.211452,25.339014 
	C23.147385,29.399086 19.083319,33.459160 14.501663,37.745979 
	C13.667145,37.991077 13.350119,38.007576 12.750143,37.745697 
	C11.163540,37.172455 9.859792,36.875732 8.556044,36.579010 
	C11.825936,33.264320 15.095829,29.949631 18.752260,26.746637 
	C19.289988,26.655415 19.441177,26.452499 19.592367,26.249584 
	C19.592367,26.249584 19.437222,26.053726 19.884235,25.957592 
	C20.876831,24.884268 21.422413,23.907080 21.967995,22.929892 
z"/>
<path fill="#3B699D" opacity="1.000000" stroke="none" 
	d="
M16.061001,41.864368 
	C19.629198,45.057995 23.323946,48.128101 26.661116,51.547215 
	C27.346355,52.249275 27.231504,54.867699 26.514471,55.497692 
	C25.728264,56.188480 23.399500,56.152172 22.482445,55.457062 
	C20.402370,53.880409 18.776165,51.704971 17.189796,49.416759 
	C17.886139,48.156998 18.944876,47.047245 18.714127,46.390682 
	C18.144934,44.771141 16.984030,43.359554 16.061001,41.864368 
z"/>
<path fill="#0E121B" opacity="1.000000" stroke="none" 
	d="
M431.996033,51.994514 
	C432.271637,53.360962 433.254303,55.421879 432.706512,55.979645 
	C429.480743,59.264011 425.898529,62.198288 422.436401,65.250488 
	C421.969910,64.916695 421.503418,64.582901 421.036926,64.249107 
	C421.595459,62.709522 422.153992,61.169941 423.188416,59.252327 
	C426.441528,56.581039 429.218781,54.287781 431.996033,51.994514 
z"/>
<path fill="#3073B6" opacity="1.000000" stroke="none" 
	d="
M15.921909,41.589157 
	C16.984030,43.359554 18.144934,44.771141 18.714127,46.390682 
	C18.944876,47.047245 17.886139,48.156998 17.047777,49.105713 
	C14.187497,46.688221 11.693604,44.225555 9.077372,41.015194 
	C8.822270,39.073738 8.689509,37.879978 8.556748,36.686218 
	C8.556748,36.686218 8.551963,36.632580 8.554003,36.605797 
	C9.859792,36.875732 11.163540,37.172455 12.772526,38.021446 
	C13.538027,39.060436 13.998290,39.547161 14.458553,40.033886 
	C14.899976,40.460571 15.341396,40.887260 15.921909,41.589157 
z"/>
<path fill="#15100A" opacity="1.000000" stroke="none" 
	d="
M432.125305,51.696468 
	C429.218781,54.287781 426.441528,56.581039 423.332153,58.936386 
	C422.575317,56.300167 428.147095,48.311733 430.601959,48.486660 
	C431.218842,48.530617 431.707153,50.379181 432.125305,51.696468 
z"/>
<path fill="#F0F0F1" opacity="1.000000" stroke="none" 
	d="
M305.345367,22.766018 
	C303.777161,23.608900 302.315857,24.272064 300.800171,24.437977 
	C300.499207,24.470919 299.456909,22.425634 299.708557,21.645967 
	C300.036774,20.628904 301.857086,19.067097 302.092590,19.217356 
	C303.366821,20.030334 304.349823,21.299692 305.345367,22.766018 
z"/>
<path fill="#E3E3E4" opacity="1.000000" stroke="none" 
	d="
M98.027771,22.046213 
	C97.161491,25.040604 95.273315,26.059736 93.180939,24.324677 
	C92.398430,23.675800 92.390968,20.554745 93.183205,19.841278 
	C95.306038,17.929523 97.087540,19.162497 98.027771,22.046213 
z"/>
<path fill="#3B659B" opacity="1.000000" stroke="none" 
	d="
M27.463757,25.094334 
	C26.243690,24.355730 25.275928,23.372446 24.116344,22.100368 
	C27.049791,20.501198 27.866535,22.071878 27.463757,25.094334 
z"/>
<path fill="#3C6DA6" opacity="1.000000" stroke="none" 
	d="
M8.249529,36.792118 
	C8.689509,37.879978 8.822270,39.073738 8.925610,40.714748 
	C8.578229,39.740673 8.260269,38.319344 8.249529,36.792118 
z"/>
<path fill="#3B659B" opacity="1.000000" stroke="none" 
	d="
M21.667931,23.066460 
	C21.422413,23.907080 20.876831,24.884268 19.940704,25.846151 
	C20.156061,24.954906 20.761965,24.078968 21.667931,23.066460 
z"/>
<path fill="#3B659B" opacity="1.000000" stroke="none" 
	d="
M14.523397,39.688652 
	C13.998290,39.547161 13.538027,39.060436 13.055380,38.297966 
	C13.350119,38.007576 13.667145,37.991077 14.218432,37.960606 
	C14.497941,38.413460 14.543092,38.878441 14.523397,39.688652 
z"/>
<path fill="#3B659B" opacity="1.000000" stroke="none" 
	d="
M19.454517,26.253290 
	C19.441177,26.452499 19.289988,26.655415 19.101830,26.613916 
	C19.064859,26.369501 19.316668,26.256996 19.454517,26.253290 
z"/>
<path fill="#17171A" opacity="1.000000" stroke="none" 
	d="
M148.421432,49.649509 
	C143.122711,51.411797 140.942322,50.421741 139.214920,45.819466 
	C137.508163,41.272167 139.121170,35.596867 142.599365,33.911423 
	C146.271637,32.131935 150.430603,33.911674 151.633759,38.137642 
	C152.829819,42.338634 152.510742,46.392708 148.421432,49.649509 
z"/>
<path fill="#1A1A1C" opacity="1.000000" stroke="none" 
	d="
M329.786011,45.308052 
	C328.443909,49.473839 326.045258,51.721119 321.894592,50.948269 
	C317.662689,50.160290 316.548981,46.705967 316.393494,43.100029 
	C316.226196,39.220974 316.683411,35.307133 321.197205,33.735535 
	C324.911407,32.442318 328.512421,34.383514 329.562500,38.509319 
	C330.079102,40.539051 329.805328,42.769951 329.786011,45.308052 
z"/>
<path fill="#171719" opacity="1.000000" stroke="none" 
	d="
M122.086243,40.374229 
	C122.048584,42.449192 122.581207,44.604324 121.737823,45.656731 
	C120.042778,47.771858 117.837570,50.170959 115.402878,50.831852 
	C112.073143,51.735703 109.958336,49.025749 109.081512,45.860184 
	C108.688934,44.442890 108.475082,42.869961 108.646851,41.423065 
	C109.100334,37.603291 110.240250,33.879097 114.787384,33.445000 
	C119.207291,33.023052 121.388214,35.807781 122.086243,40.374229 
z"/>
<path fill="#19191B" opacity="1.000000" stroke="none" 
	d="
M229.545761,37.780289 
	C231.100540,33.678703 234.102463,32.040188 237.565918,33.286495 
	C239.703873,34.055824 241.169510,36.693478 242.936966,38.492348 
	C242.618988,39.015846 242.301010,39.539345 241.983032,40.062843 
	C238.254150,40.062843 234.522308,40.133808 230.799957,39.978020 
	C230.303635,39.957249 229.855438,38.787205 229.545761,37.780289 
z"/>
<path fill="#191919" opacity="1.000000" stroke="none" 
	d="
M383.445435,33.199364 
	C385.387146,35.150883 386.944550,37.002552 389.333984,39.843483 
	C383.488892,39.843483 379.398438,39.843483 375.304138,39.843483 
	C375.428772,34.554096 377.111847,33.106014 383.445435,33.199364 
z"/>
<path fill="#19191C" opacity="1.000000" stroke="none" 
	d="
M168.475967,38.859886 
	C169.886978,34.681580 172.322067,32.445629 176.468277,33.518597 
	C181.020615,34.696659 181.994827,38.576256 181.883499,42.536934 
	C181.777664,46.301163 180.632919,49.895096 176.276642,50.938610 
	C172.597198,51.820000 169.353439,49.484035 168.417465,45.142437 
	C168.009628,43.250721 168.322617,41.203606 168.475967,38.859886 
z"/>
</svg>